# xmcd
#
# Track frame offsets: 
#        151
#        25534
#        54909
#        81998
#        117804
#        152796
#
# Disc length: 2456 seconds
#
# Revision: 2
# Processed by: cddbd v1.5.2PL0 Copyright (c) Steve Scherf et al.
# Submitted via: ExactAudioCopy v0.95b4
#
DISCID=3b099606
DTITLE=阿炳（華彥鈞） - 二泉映月
DYEAR=1997
DGENRE=New Age
TTITLE0=二胡與合奏 - 二胡演奏：閔惠芬
TTITLE1=電子合成器，壎、蕭
TTITLE2=中國民族樂合奏 - 中國廣播民族樂團
TTITLE3=絃樂合奏 - 中國愛樂交響樂團
TTITLE4=鋼琴與絃樂隊 - 鋼琴：趙胤胤
TTITLE5=歷史珍貴錄音 - 二胡：華彥鈞
EXTD=YEAR: 1997
EXTT0=
EXTT1=
EXTT2=
EXTT3=
EXTT4=
EXTT5=
PLAYORDER=
